<?xml version="1.0" encoding="UTF-8"?>
<svg xmlns="http://www.w3.org/2000/svg" xmlns:xlink="http://www.w3.org/1999/xlink" width="80px" height="30px" viewBox="0 0 80 30" version="1.1">
<g id="surface1">
<path style="fill-rule:nonzero;fill:rgb(87.843137%,75.294118%,8.627451%);fill-opacity:1;stroke-width:1;stroke-linecap:butt;stroke-linejoin:miter;stroke:rgb(87.843137%,75.294118%,8.627451%);stroke-opacity:1;stroke-miterlimit:4;" d="M 1264.254492 102.19375 C 1279.080225 102.323438 1294.037158 102.19375 1308.994092 102.323438 C 1309.125293 127.6125 1308.731689 152.901563 1309.125293 178.320313 C 1358.588135 179.098438 1408.182178 177.282813 1457.64502 181.692188 C 1508.682275 185.7125 1559.194727 196.60625 1606.951953 214.892188 C 1624.664111 222.284375 1641.195459 232.140625 1657.726807 241.867188 C 1689.608691 261.060938 1720.572168 281.551563 1751.535645 302.042188 C 1780.268701 321.10625 1808.739355 340.689063 1838.259619 358.585938 C 1852.298145 366.367188 1866.467871 374.148438 1880.375195 382.31875 C 1899.005762 393.082813 1917.767529 403.717188 1937.316504 412.535938 C 1953.71665 419.928125 1971.035205 426.282813 1989.009766 428.357813 C 2032.306152 431.210938 2075.602539 435.360938 2118.505322 441.715625 C 2137.004687 444.439063 2155.635254 447.292188 2174.134619 450.145313 C 2198.931641 453.646875 2223.072656 459.871875 2247.476074 465.448438 C 2275.02832 472.0625 2302.711768 478.935938 2330.264014 486.06875 C 2371.723584 497.48125 2413.183154 509.282813 2454.380322 521.992188 C 2475.503711 528.60625 2496.6271 535.220313 2517.094482 543.65 C 2524.441748 546.7625 2532.182617 549.615625 2537.824268 555.451563 C 2546.352344 563.88125 2549.763574 575.942188 2551.469189 587.484375 C 2482.982178 587.484375 2414.495166 587.484375 2346.008154 587.484375 C 2340.891309 587.484375 2335.249658 589.040625 2332.494434 593.579688 C 2329.608008 598.507812 2329.476807 604.473438 2329.214404 609.920313 C 2329.345605 618.609375 2329.214404 627.298438 2329.345605 635.9875 C 2329.608008 641.304688 2330.001611 647.010938 2333.544043 651.290625 C 2336.56167 654.792188 2341.416113 655.829688 2346.008154 655.829688 C 2414.626367 655.829688 2483.375781 655.829688 2552.125195 655.829688 C 2556.454834 655.959375 2561.440479 655.570312 2564.851709 652.457813 C 2568.262939 649.475 2568.656543 644.676563 2569.050146 640.396875 C 2578.496631 652.976562 2589.517529 664.389063 2599.62002 676.579688 C 2603.556055 681.248438 2608.935303 684.360938 2613.396143 688.640625 C 2562.883691 688.640625 2512.502441 688.510938 2461.98999 688.640625 C 2457.660352 688.770313 2453.461914 688.251563 2449.263477 689.029688 C 2446.770654 690.585938 2447.557861 693.957813 2447.557861 696.292188 C 2447.951465 700.182813 2446.901855 704.073438 2447.820264 707.834375 C 2448.47627 709.909375 2450.837891 709.909375 2452.674707 709.909375 C 2505.286377 709.909375 2557.898047 710.039063 2610.509717 709.909375 C 2613.920947 709.779688 2618.381787 710.817188 2620.481006 707.315625 C 2621.793018 739.478125 2623.105029 771.770313 2624.28584 803.932813 C 2624.417041 806.396875 2624.548242 808.860938 2624.28584 811.325 C 2623.892236 813.4 2621.530615 813.91875 2619.693799 813.91875 C 2570.624561 814.048438 2521.424121 813.789063 2472.223682 814.178125 C 2416.594385 814.178125 2360.833887 814.178125 2305.073389 814.178125 C 2283.031592 814.567188 2260.989795 814.4375 2238.947998 814.4375 C 2239.735205 785.128125 2233.962354 755.689063 2221.23584 729.232813 C 2200.243652 684.75 2160.620898 649.604688 2113.913281 634.042188 C 2079.800977 622.629688 2042.408643 621.592188 2007.640332 630.670313 C 1977.464062 638.710938 1949.518213 654.792188 1927.082812 676.579688 C 1902.810596 700.053125 1885.229639 730.4 1877.095166 763.08125 C 1872.634326 779.940625 1871.059912 797.448438 1871.584717 814.826563 C 1820.809863 814.826563 1770.166211 814.826563 1719.391357 814.826563 C 1669.928516 815.345313 1620.465674 814.95625 1570.871631 815.085938 C 1546.205811 815.215625 1521.408789 814.826563 1496.742969 815.345313 C 1444.393701 815.345313 1392.044434 815.345313 1339.826367 815.345313 C 1319.358984 815.085938 1299.022803 815.604688 1278.55542 815.604688 C 1225.94375 815.604688 1173.33208 815.604688 1120.72041 815.604688 C 1070.076758 815.99375 1019.301904 815.734375 968.658252 815.734375 C 945.042041 815.864063 921.557031 815.604688 897.94082 815.99375 C 844.804346 815.99375 791.667871 815.99375 738.400195 815.99375 C 739.581006 790.05625 735.120166 763.989063 725.411279 739.867188 C 715.177588 714.189063 699.039844 690.975 678.703662 672.429688 C 656.268262 652.06875 628.716016 637.284375 599.326953 629.892188 C 560.753809 620.425 519.163037 623.5375 482.689111 639.229688 C 451.332031 652.457813 423.779785 674.89375 404.230811 702.776563 C 384.944238 730.270313 373.267334 763.210938 371.299316 796.670313 C 370.905713 803.284375 371.036914 809.898438 371.036914 816.5125 C 327.346924 816.382813 283.656934 816.901563 239.966943 816.771875 C 190.766504 816.901563 141.566064 816.5125 92.365625 817.03125 C 86.855176 816.901563 80.688721 818.717188 75.571875 815.99375 C 71.898242 813.270313 72.685449 807.953125 72.81665 803.932813 C 72.947852 778.384375 72.81665 752.835938 72.81665 727.2875 C 132.250781 727.417188 191.684912 727.2875 250.987842 727.2875 C 254.792676 727.417188 258.466309 725.2125 259.77832 721.58125 C 261.615137 716.523438 261.352734 710.946875 261.483936 705.629688 C 261.221533 699.923438 261.746338 694.0875 259.384717 688.9 C 257.810303 685.26875 253.874268 683.582813 250.200635 683.842188 C 191.160107 683.842188 132.11958 683.842188 73.079053 683.842188 C 73.079053 675.93125 73.079053 668.020313 73.079053 660.109375 C 72.947852 649.604688 69.799023 639.1 71.898242 628.595313 C 72.554248 624.834375 75.309473 621.721875 78.983105 620.684375 C 88.167187 617.701563 97.876074 619.517188 107.191357 619.257812 C 120.705078 618.35 134.218799 617.182813 147.863721 616.923438 C 164.919873 617.182813 181.976025 617.053125 199.163379 617.053125 C 218.31875 617.701563 237.474121 617.182813 256.629492 617.442188 C 259.122314 610.698438 259.384717 603.565625 260.171924 596.5625 C 261.877539 577.239063 260.040723 557.526563 254.267871 538.98125 C 249.413428 522.121875 241.016553 506.559375 232.619678 491.126563 C 224.222803 476.082813 214.645117 460.909375 199.950586 451.182813 C 188.011279 443.271875 172.923145 442.364063 158.884619 443.142188 C 155.60459 443.271875 152.062158 443.142188 148.91333 444.56875 C 149.569336 438.8625 149.962939 432.896875 152.062158 427.320313 C 152.849365 425.504688 154.030176 423.429688 156.260596 423.429688 C 164.657471 422.78125 173.054346 422.003125 181.451221 422.2625 C 227.896436 422.2625 274.210449 422.2625 320.655664 422.2625 C 331.151758 422.2625 341.779053 422.003125 352.275146 422.78125 C 385.731445 424.85625 418.925342 428.746875 452.381641 430.303125 C 452.250439 430.432813 451.988037 430.951563 451.856836 431.08125 C 454.087256 434.971875 456.317676 438.8625 457.89209 443.142188 C 459.335303 446.64375 460.12251 450.923438 463.271338 453.517188 C 466.944971 456.629688 472.061816 456.370313 476.522656 456.5 C 496.727637 456.5 517.719824 455.4625 536.350391 446.903125 C 543.04165 444.179688 547.896094 438.732813 553.275342 434.19375 C 578.597168 411.239063 603.131787 387.376563 627.666406 363.64375 C 657.580273 334.464063 687.494141 305.284375 716.752002 275.585938 C 723.312061 268.582813 730.528125 262.098438 736.432178 254.446875 C 741.942627 247.703125 748.240283 241.607813 754.275537 235.253125 C 766.346045 227.73125 779.334961 221.50625 792.455078 215.670313 C 809.642432 208.01875 826.567383 199.71875 844.541943 193.882813 C 865.140527 187.009375 886.919922 185.19375 908.568115 184.026563 C 964.459814 181.432813 1020.351514 180.395313 1076.243213 179.617188 C 1138.826172 178.839063 1201.409131 178.45 1263.99209 178.579688 C 1264.385693 153.160938 1263.99209 127.742188 1264.254492 102.19375 M 1323.163818 224.489063 C 1310.830908 224.878125 1298.629199 224.359375 1286.296289 225.1375 C 1286.689893 281.940625 1286.689893 338.74375 1287.214697 395.546875 C 1287.214697 405.792188 1286.952295 416.0375 1287.4771 426.153125 C 1287.4771 438.603125 1287.4771 450.923438 1287.608301 463.373438 C 1301.253223 464.021875 1315.029346 463.503125 1328.674268 463.632813 C 1349.666455 463.892188 1370.789844 463.373438 1391.782031 463.892188 C 1418.415869 463.892188 1445.049707 463.892188 1471.552344 463.892188 C 1497.923779 464.540625 1524.164014 464.151563 1550.535449 464.28125 C 1597.767871 464.540625 1645.131494 464.28125 1692.495117 464.540625 C 1717.948145 464.8 1743.269971 464.28125 1768.591797 464.929688 C 1781.974316 464.929688 1795.225635 464.8 1808.608154 464.929688 C 1808.608154 458.964063 1805.721729 453.646875 1802.966504 448.459375 C 1797.456055 438.8625 1790.764795 429.914063 1783.811133 421.095313 C 1772.790234 407.478125 1761.244531 394.379688 1748.911621 381.8 C 1710.469678 346.135938 1669.928516 312.2875 1625.057715 284.923438 C 1594.356641 266.248438 1561.556348 250.815625 1526.919238 241.089063 C 1509.338281 236.160938 1491.23252 233.048438 1473.38916 229.546875 C 1448.067334 224.878125 1422.220703 222.284375 1396.505273 223.451563 C 1372.101855 223.710938 1347.567236 224.229688 1323.163818 224.489063 M 1061.41748 225.396875 C 1028.223584 225.396875 994.636084 225.785938 962.098193 232.659375 C 950.683691 234.99375 939.793994 239.403125 930.216309 245.8875 C 918.801807 253.66875 909.486523 264.303125 901.483252 275.585938 C 892.561572 288.295313 885.476709 302.171875 877.73584 315.659375 C 864.878125 339.003125 850.970801 361.828125 836.538672 384.264063 C 828.010596 398.789063 819.876123 413.573438 812.135254 428.4875 C 806.362402 439.9 800.327148 451.3125 796.391113 463.503125 C 820.66333 463.503125 844.935547 463.373438 869.207764 463.503125 C 899.252832 462.854688 929.2979 463.632813 959.211768 462.984375 C 1000.802539 463.24375 1042.262109 462.595313 1083.72168 462.725 C 1108.3875 462.854688 1133.184521 462.335938 1157.981543 462.595313 C 1183.959375 462.595313 1209.937207 462.20625 1236.04624 462.465625 C 1236.177441 383.745313 1235.783838 305.025 1236.177441 226.304688 C 1208.493994 225.396875 1180.941748 225.65625 1153.258301 225.007813 C 1129.773291 225.1375 1106.15708 224.229688 1082.67207 225.1375 C 1075.587207 225.1375 1068.502344 224.878125 1061.41748 225.396875 M 1324.213428 486.717188 C 1320.408594 486.976563 1316.341357 488.532813 1314.504541 492.034375 C 1311.224512 498 1311.880518 505.003125 1311.749316 511.617188 C 1311.880518 516.545313 1312.405322 521.8625 1315.291748 526.0125 C 1317.653369 529.384375 1321.983008 530.421875 1325.919043 530.292188 C 1358.325732 530.292188 1390.863623 530.292188 1423.270313 530.292188 C 1427.337549 530.292188 1431.798389 528.60625 1434.028809 525.104688 C 1436.652832 520.825 1437.308838 515.6375 1437.440039 510.709375 C 1437.440039 503.965625 1437.702441 496.703125 1433.504004 491.126563 C 1430.617578 487.10625 1425.107129 486.457813 1420.515088 486.457813 C 1388.502002 486.717188 1356.357715 486.328125 1324.213428 486.717188 M 839.031494 488.014063 C 835.751465 488.921875 833.258643 491.645313 832.340234 494.8875 C 830.76582 500.982813 831.290625 507.3375 831.159424 513.5625 C 831.553027 518.23125 831.81543 523.41875 834.833057 527.439063 C 837.45708 530.68125 842.049121 531.070312 845.985156 531.070312 C 878.523047 530.940625 910.929736 531.2 943.467627 531.329688 C 947.272461 531.459375 951.470898 529.773438 953.570117 526.53125 C 956.587744 521.8625 956.981348 516.026563 956.850146 510.709375 C 956.850146 504.74375 957.374951 498.51875 954.619727 493.071875 C 953.045312 489.959375 949.765283 488.273438 946.485254 487.884375 C 932.184326 487.10625 917.883398 487.495313 903.582471 487.495313 C 884.689502 487.495313 865.796533 487.365625 846.903564 487.235938 C 844.279541 487.235938 841.524316 487.10625 839.031494 488.014063 M 1489.789307 619.776563 C 1489.789307 640.915625 1490.18291 662.054688 1489.789307 683.19375 C 1468.272314 683.064063 1446.886523 683.19375 1425.369531 683.19375 C 1425.369531 662.054688 1425.369531 640.915625 1425.369531 619.90625 C 1403.98374 619.776563 1382.466748 619.776563 1361.080957 619.90625 C 1360.949756 641.304688 1360.949756 662.832813 1361.080957 684.23125 C 1382.466748 684.23125 1403.98374 684.23125 1425.500732 684.23125 C 1425.500732 705.240625 1425.631934 726.379688 1425.500732 747.389063 C 1447.017725 747.51875 1468.534717 747.648438 1489.920508 747.259375 C 1489.658105 726.25 1490.051709 705.240625 1489.920508 684.23125 C 1511.306299 684.23125 1532.823291 684.23125 1554.209082 684.23125 C 1554.209082 705.240625 1554.209082 726.25 1554.209082 747.389063 C 1575.594873 747.389063 1597.111865 747.259375 1618.497656 747.389063 C 1618.760059 726.25 1618.628857 705.110938 1618.497656 683.971875 C 1640.14585 684.620313 1661.794043 684.101563 1683.442236 684.23125 C 1683.442236 662.832813 1683.442236 641.304688 1683.442236 619.90625 C 1661.925244 619.90625 1640.539453 619.776563 1619.022461 619.90625 C 1619.153662 640.915625 1618.89126 661.925 1619.153662 682.934375 C 1597.505469 682.934375 1575.857275 682.934375 1554.209082 682.934375 C 1554.077881 661.925 1554.471484 640.785938 1554.077881 619.776563 C 1532.69209 619.90625 1511.175098 619.90625 1489.789307 619.776563 M 979.67915 619.90625 C 979.67915 641.304688 979.67915 662.832813 979.67915 684.360938 C 1001.064941 684.23125 1022.581934 684.23125 1044.098926 684.23125 C 1044.098926 662.832813 1043.967725 641.304688 1044.098926 619.90625 C 1022.581934 619.90625 1001.196143 619.90625 979.67915 619.90625 M 851.626807 620.814063 C 851.626807 642.342188 851.626807 663.740625 851.626807 685.139063 C 872.881396 685.139063 894.267187 685.139063 915.521777 685.139063 C 915.652979 706.407813 915.259375 727.676563 915.652979 748.945313 C 937.03877 748.815625 958.424561 748.815625 979.810352 749.075 C 980.072754 727.546875 979.67915 706.148438 979.941553 684.75 C 958.686963 684.101563 937.169971 684.879688 915.915381 684.360938 C 916.046582 663.221875 915.915381 641.953125 915.915381 620.814063 C 894.52959 620.814063 873.012598 620.814063 851.626807 620.814063 M 1106.025879 685.009375 C 1085.033691 685.009375 1063.910303 685.009375 1042.786914 685.009375 C 1042.918115 706.5375 1042.655713 728.065625 1042.918115 749.59375 C 1064.435107 749.464063 1085.9521 749.59375 1107.469092 749.59375 C 1107.469092 728.065625 1107.469092 706.667188 1107.469092 685.139063 C 1128.59248 685.139063 1149.584668 685.26875 1170.576855 685.139063 C 1170.314453 663.610938 1170.839258 642.2125 1170.314453 620.684375 C 1149.059863 620.94375 1127.674072 620.94375 1106.419482 620.684375 C 1106.025879 642.082813 1106.419482 663.610938 1106.025879 685.009375 M 1232.897412 620.814063 C 1232.897412 642.342188 1233.028613 663.740625 1233.028613 685.26875 C 1254.414404 685.009375 1275.800195 685.139063 1297.185986 685.139063 C 1297.317188 663.740625 1297.317188 642.2125 1297.317188 620.814063 C 1275.800195 620.814063 1254.414404 620.814063 1232.897412 620.814063 M 1680.293408 685.139063 C 1680.162207 706.5375 1680.424609 728.065625 1680.293408 749.59375 C 1701.679199 749.59375 1723.196191 749.59375 1744.581982 749.464063 C 1744.581982 728.065625 1744.713184 706.5375 1744.581982 685.009375 C 1723.196191 685.139063 1701.679199 684.879688 1680.293408 685.139063 M 1170.183252 749.982813 C 1191.700244 750.242188 1213.217236 750.1125 1234.734229 750.1125 C 1234.603027 728.714063 1234.603027 707.445313 1234.734229 686.046875 C 1229.223779 685.398438 1223.71333 685.917188 1218.202881 685.7875 C 1202.327539 685.7875 1186.320996 685.917188 1170.445654 685.657813 C 1170.052051 707.05625 1170.445654 728.584375 1170.183252 749.982813 M 1296.398779 686.176563 C 1296.661182 707.575 1296.398779 728.973438 1296.52998 750.501563 C 1317.915771 750.371875 1339.432764 750.501563 1360.818555 750.501563 C 1360.949756 728.973438 1360.687354 707.575 1360.949756 686.046875 C 1352.028076 685.657813 1343.106396 686.046875 1334.184717 685.917188 C 1321.589404 686.046875 1308.994092 685.657813 1296.398779 686.176563 Z M 1296.398779 686.176563 " transform="matrix(0.029773,0,0,0.0301205,0,0)"/>
<path style="fill-rule:nonzero;fill:rgb(22.352941%,21.176471%,19.607843%);fill-opacity:1;stroke-width:1;stroke-linecap:butt;stroke-linejoin:miter;stroke:rgb(22.352941%,21.176471%,19.607843%);stroke-opacity:1;stroke-miterlimit:4;" d="M 1323.163818 224.489063 C 1347.567236 224.229688 1372.101855 223.710938 1396.505273 223.451563 C 1422.220703 222.284375 1448.067334 224.878125 1473.38916 229.546875 C 1491.363721 233.048438 1509.338281 236.160938 1526.919238 241.089063 C 1561.556348 250.815625 1594.356641 266.248438 1625.057715 284.923438 C 1669.928516 312.2875 1710.469678 346.135938 1748.911621 381.8 C 1761.244531 394.379688 1772.790234 407.478125 1783.811133 421.095313 C 1790.764795 429.914063 1797.456055 438.8625 1802.966504 448.459375 C 1805.721729 453.646875 1808.608154 458.964063 1808.608154 464.929688 C 1795.225635 464.8 1781.974316 464.929688 1768.722998 464.929688 C 1743.269971 464.28125 1717.948145 464.8 1692.495117 464.540625 C 1645.131494 464.28125 1597.767871 464.540625 1550.535449 464.28125 C 1524.164014 464.151563 1497.923779 464.540625 1471.552344 463.892188 C 1445.049707 463.892188 1418.415869 463.892188 1391.782031 463.892188 C 1370.789844 463.373438 1349.666455 463.892188 1328.674268 463.632813 C 1315.029346 463.503125 1301.253223 464.021875 1287.608301 463.373438 C 1287.4771 450.923438 1287.4771 438.603125 1287.4771 426.153125 C 1286.952295 416.0375 1287.214697 405.792188 1287.214697 395.546875 C 1286.689893 338.74375 1286.689893 281.940625 1286.296289 225.1375 C 1298.629199 224.359375 1310.830908 224.878125 1323.163818 224.489063 Z M 1323.163818 224.489063 " transform="matrix(0.029773,0,0,0.0301205,0,0)"/>
<path style="fill-rule:nonzero;fill:rgb(22.352941%,21.176471%,19.607843%);fill-opacity:1;stroke-width:1;stroke-linecap:butt;stroke-linejoin:miter;stroke:rgb(22.352941%,21.176471%,19.607843%);stroke-opacity:1;stroke-miterlimit:4;" d="M 1061.41748 225.396875 C 1068.502344 224.878125 1075.587207 225.1375 1082.67207 225.1375 C 1106.15708 224.229688 1129.773291 225.1375 1153.258301 225.007813 C 1180.941748 225.65625 1208.493994 225.396875 1236.177441 226.304688 C 1235.783838 305.025 1236.177441 383.745313 1236.04624 462.465625 C 1209.937207 462.20625 1183.959375 462.595313 1157.981543 462.595313 C 1133.184521 462.335938 1108.3875 462.854688 1083.72168 462.725 C 1042.262109 462.595313 1000.802539 463.24375 959.211768 462.984375 C 929.2979 463.632813 899.252832 462.854688 869.207764 463.503125 C 844.935547 463.373438 820.66333 463.503125 796.391113 463.503125 C 800.327148 451.3125 806.362402 439.9 812.135254 428.4875 C 819.876123 413.573438 828.010596 398.789063 836.538672 384.264063 C 850.970801 361.828125 864.878125 339.003125 877.73584 315.659375 C 885.476709 302.171875 892.561572 288.295313 901.483252 275.585938 C 909.486523 264.303125 918.801807 253.66875 930.216309 245.8875 C 939.793994 239.403125 950.683691 234.99375 962.098193 232.659375 C 994.636084 225.785938 1028.223584 225.396875 1061.41748 225.396875 Z M 1061.41748 225.396875 " transform="matrix(0.029773,0,0,0.0301205,0,0)"/>
<path style="fill-rule:nonzero;fill:rgb(22.352941%,21.176471%,19.607843%);fill-opacity:1;stroke-width:1;stroke-linecap:butt;stroke-linejoin:miter;stroke:rgb(22.352941%,21.176471%,19.607843%);stroke-opacity:1;stroke-miterlimit:4;" d="M 724.36167 241.996875 C 734.070557 238.754688 743.910645 234.864063 754.275537 235.253125 C 748.240283 241.607813 741.942627 247.703125 736.432178 254.446875 C 730.528125 262.098438 723.312061 268.582813 716.752002 275.585938 C 687.494141 305.284375 657.580273 334.464063 627.666406 363.64375 C 603.131787 387.376563 578.597168 411.239063 553.406543 434.19375 C 547.896094 438.732813 543.04165 444.179688 536.350391 446.903125 C 517.719824 455.4625 496.727637 456.5 476.653857 456.5 C 472.061816 456.370313 466.944971 456.629688 463.271338 453.517188 C 460.12251 450.923438 459.335303 446.64375 457.89209 443.142188 C 456.317676 438.8625 454.087256 434.971875 451.856836 431.210938 C 451.988037 430.951563 452.250439 430.432813 452.381641 430.303125 C 457.367285 426.023438 462.484131 422.2625 467.469775 417.982813 C 475.341846 410.33125 484.263525 403.5875 492.791602 396.714063 C 523.886279 372.4625 555.636963 348.989063 586.600439 324.607813 C 600.901367 314.3625 615.464697 304.50625 630.028027 294.65 C 645.772168 284.015625 661.516309 273.510938 677.785254 263.525 C 692.217383 254.317188 708.355127 248.092188 724.36167 241.996875 Z M 724.36167 241.996875 " transform="matrix(0.029773,0,0,0.0301205,0,0)"/>
<path style="fill-rule:nonzero;fill:rgb(22.352941%,21.176471%,19.607843%);fill-opacity:1;stroke-width:1;stroke-linecap:butt;stroke-linejoin:miter;stroke:rgb(22.352941%,21.176471%,19.607843%);stroke-opacity:1;stroke-miterlimit:4;" d="M 159.01582 443.142188 C 172.923145 442.364063 188.011279 443.271875 199.950586 451.182813 C 214.645117 460.909375 224.222803 476.082813 232.619678 491.126563 C 241.016553 506.559375 249.413428 522.121875 254.267871 538.98125 C 260.040723 557.526563 261.877539 577.239063 260.171924 596.5625 C 259.384717 603.565625 259.122314 610.698438 256.629492 617.442188 C 237.474121 617.182813 218.31875 617.701563 199.163379 617.053125 C 181.976025 617.053125 164.919873 617.182813 147.863721 617.053125 C 148.126123 571.014063 148.126123 525.104688 147.863721 479.065625 C 147.73252 469.209375 148.388525 459.223438 147.863721 449.367188 C 147.73252 447.68125 147.73252 445.865625 148.91333 444.56875 C 152.062158 443.142188 155.60459 443.401563 159.01582 443.142188 Z M 159.01582 443.142188 " transform="matrix(0.029773,0,0,0.0301205,0,0)"/>
<path style="fill-rule:nonzero;fill:rgb(22.352941%,21.176471%,19.607843%);fill-opacity:1;stroke-width:1;stroke-linecap:butt;stroke-linejoin:miter;stroke:rgb(22.352941%,21.176471%,19.607843%);stroke-opacity:1;stroke-miterlimit:4;" d="M 1324.213428 486.717188 C 1356.357715 486.328125 1388.502002 486.717188 1420.515088 486.457813 C 1425.107129 486.457813 1430.617578 487.10625 1433.504004 491.126563 C 1437.702441 496.703125 1437.440039 503.965625 1437.440039 510.709375 C 1437.308838 515.6375 1436.652832 520.825 1434.028809 525.104688 C 1431.798389 528.60625 1427.337549 530.292188 1423.270313 530.292188 C 1390.863623 530.292188 1358.325732 530.292188 1325.919043 530.292188 C 1321.983008 530.421875 1317.653369 529.384375 1315.291748 526.0125 C 1312.405322 521.8625 1311.880518 516.545313 1311.749316 511.617188 C 1311.880518 505.003125 1311.224512 498 1314.504541 492.034375 C 1316.341357 488.532813 1320.408594 486.976563 1324.213428 486.717188 Z M 1324.213428 486.717188 " transform="matrix(0.029773,0,0,0.0301205,0,0)"/>
<path style="fill-rule:nonzero;fill:rgb(22.352941%,21.176471%,19.607843%);fill-opacity:1;stroke-width:1;stroke-linecap:butt;stroke-linejoin:miter;stroke:rgb(22.352941%,21.176471%,19.607843%);stroke-opacity:1;stroke-miterlimit:4;" d="M 839.031494 488.014063 C 841.524316 487.10625 844.279541 487.235938 846.903564 487.235938 C 865.796533 487.365625 884.689502 487.495313 903.582471 487.495313 C 917.883398 487.495313 932.184326 487.10625 946.485254 487.884375 C 949.765283 488.273438 953.045312 489.959375 954.619727 493.071875 C 957.374951 498.51875 956.850146 504.74375 956.850146 510.709375 C 956.981348 516.026563 956.587744 521.8625 953.570117 526.53125 C 951.470898 529.773438 947.272461 531.459375 943.467627 531.329688 C 910.929736 531.2 878.523047 530.940625 845.985156 531.070312 C 842.049121 531.070312 837.45708 530.68125 834.833057 527.439063 C 831.684229 523.41875 831.553027 518.23125 831.159424 513.5625 C 831.159424 507.3375 830.634619 500.982813 832.340234 494.8875 C 833.258643 491.645313 835.751465 488.921875 839.031494 488.014063 Z M 839.031494 488.014063 " transform="matrix(0.029773,0,0,0.0301205,0,0)"/>
<path style="fill-rule:nonzero;fill:rgb(22.352941%,21.176471%,19.607843%);fill-opacity:1;stroke-width:1;stroke-linecap:butt;stroke-linejoin:miter;stroke:rgb(22.352941%,21.176471%,19.607843%);stroke-opacity:1;stroke-miterlimit:4;" d="M 2332.494434 593.579688 C 2335.249658 589.040625 2340.891309 587.484375 2346.008154 587.484375 C 2414.495166 587.484375 2482.982178 587.484375 2551.469189 587.484375 C 2556.192432 587.354688 2561.702881 587.614063 2565.245312 591.115625 C 2568.787744 594.876563 2568.918945 600.453125 2569.181348 605.38125 C 2569.181348 612.773438 2568.394141 620.165625 2568.918945 627.557813 C 2568.918945 631.8375 2569.44375 636.117188 2569.050146 640.396875 C 2568.656543 644.676563 2568.262939 649.475 2564.851709 652.457813 C 2561.440479 655.570312 2556.454834 655.959375 2552.125195 655.829688 C 2483.375781 655.829688 2414.626367 655.829688 2346.008154 655.829688 C 2341.416113 655.829688 2336.56167 654.792188 2333.544043 651.290625 C 2330.001611 647.010938 2329.608008 641.304688 2329.345605 635.9875 C 2329.214404 627.298438 2329.345605 618.609375 2329.214404 609.920313 C 2329.476807 604.473438 2329.608008 598.507812 2332.494434 593.579688 Z M 2332.494434 593.579688 " transform="matrix(0.029773,0,0,0.0301205,0,0)"/>
<path style="fill-rule:nonzero;fill:rgb(22.352941%,21.176471%,19.607843%);fill-opacity:1;stroke-width:1;stroke-linecap:butt;stroke-linejoin:miter;stroke:rgb(22.352941%,21.176471%,19.607843%);stroke-opacity:1;stroke-miterlimit:4;" d="M 1489.789307 619.776563 C 1511.175098 619.90625 1532.69209 619.90625 1554.077881 619.776563 C 1554.471484 640.785938 1554.077881 661.925 1554.209082 682.934375 C 1575.857275 682.934375 1597.505469 682.934375 1619.153662 682.934375 C 1618.89126 661.925 1619.153662 640.915625 1619.022461 619.90625 C 1640.539453 619.776563 1661.925244 619.90625 1683.442236 619.90625 C 1683.311035 641.304688 1683.442236 662.832813 1683.442236 684.23125 C 1661.794043 684.101563 1640.14585 684.620313 1618.497656 683.971875 C 1618.628857 705.110938 1618.760059 726.25 1618.497656 747.389063 C 1597.111865 747.259375 1575.594873 747.389063 1554.209082 747.389063 C 1554.209082 726.25 1554.209082 705.240625 1554.209082 684.23125 C 1532.823291 684.23125 1511.306299 684.23125 1489.920508 684.23125 C 1490.051709 705.240625 1489.658105 726.25 1489.920508 747.259375 C 1468.534717 747.648438 1447.017725 747.51875 1425.500732 747.389063 C 1425.631934 726.379688 1425.500732 705.240625 1425.500732 684.23125 C 1403.98374 684.23125 1382.466748 684.23125 1361.080957 684.23125 C 1360.949756 662.832813 1360.949756 641.304688 1361.080957 619.90625 C 1382.466748 619.776563 1403.98374 619.776563 1425.369531 619.90625 C 1425.369531 640.915625 1425.369531 662.054688 1425.369531 683.19375 C 1446.755322 683.19375 1468.272314 683.064063 1489.789307 683.19375 C 1490.18291 662.054688 1489.789307 640.915625 1489.789307 619.776563 Z M 1489.789307 619.776563 " transform="matrix(0.029773,0,0,0.0301205,0,0)"/>
<path style="fill-rule:nonzero;fill:rgb(22.352941%,21.176471%,19.607843%);fill-opacity:1;stroke-width:1;stroke-linecap:butt;stroke-linejoin:miter;stroke:rgb(22.352941%,21.176471%,19.607843%);stroke-opacity:1;stroke-miterlimit:4;" d="M 979.67915 619.90625 C 1001.196143 619.90625 1022.581934 619.90625 1044.098926 619.90625 C 1043.967725 641.304688 1044.098926 662.832813 1044.098926 684.23125 C 1022.581934 684.23125 1001.064941 684.23125 979.67915 684.360938 C 979.67915 662.832813 979.67915 641.304688 979.67915 619.90625 Z M 979.67915 619.90625 " transform="matrix(0.029773,0,0,0.0301205,0,0)"/>
<path style="fill-rule:nonzero;fill:rgb(22.352941%,21.176471%,19.607843%);fill-opacity:1;stroke-width:1;stroke-linecap:butt;stroke-linejoin:miter;stroke:rgb(22.352941%,21.176471%,19.607843%);stroke-opacity:1;stroke-miterlimit:4;" d="M 851.626807 620.814063 C 873.012598 620.814063 894.52959 620.814063 915.915381 620.814063 C 915.915381 641.953125 916.046582 663.221875 915.915381 684.360938 C 937.169971 684.879688 958.686963 684.101563 979.941553 684.75 C 979.67915 706.148438 980.072754 727.546875 979.810352 749.075 C 958.424561 748.815625 937.03877 748.815625 915.652979 748.945313 C 915.259375 727.676563 915.652979 706.407813 915.521777 685.139063 C 894.267187 685.139063 872.881396 685.139063 851.626807 685.139063 C 851.626807 663.740625 851.626807 642.342188 851.626807 620.814063 Z M 851.626807 620.814063 " transform="matrix(0.029773,0,0,0.0301205,0,0)"/>
<path style="fill-rule:nonzero;fill:rgb(22.352941%,21.176471%,19.607843%);fill-opacity:1;stroke-width:1;stroke-linecap:butt;stroke-linejoin:miter;stroke:rgb(22.352941%,21.176471%,19.607843%);stroke-opacity:1;stroke-miterlimit:4;" d="M 1106.025879 685.009375 C 1106.419482 663.610938 1106.025879 642.082813 1106.419482 620.684375 C 1127.674072 620.94375 1149.059863 620.94375 1170.314453 620.684375 C 1170.839258 642.2125 1170.314453 663.610938 1170.576855 685.139063 C 1149.584668 685.26875 1128.59248 685.139063 1107.469092 685.139063 C 1107.469092 706.667188 1107.469092 728.065625 1107.469092 749.59375 C 1085.9521 749.59375 1064.435107 749.464063 1042.918115 749.59375 C 1042.655713 728.065625 1042.918115 706.5375 1042.786914 685.009375 C 1063.910303 685.009375 1085.033691 685.009375 1106.025879 685.009375 Z M 1106.025879 685.009375 " transform="matrix(0.029773,0,0,0.0301205,0,0)"/>
<path style="fill-rule:nonzero;fill:rgb(22.352941%,21.176471%,19.607843%);fill-opacity:1;stroke-width:1;stroke-linecap:butt;stroke-linejoin:miter;stroke:rgb(22.352941%,21.176471%,19.607843%);stroke-opacity:1;stroke-miterlimit:4;" d="M 1232.897412 620.814063 C 1254.414404 620.814063 1275.800195 620.814063 1297.317188 620.814063 C 1297.317188 642.2125 1297.317188 663.740625 1297.185986 685.139063 C 1275.800195 685.139063 1254.414404 685.009375 1233.028613 685.26875 C 1233.028613 663.740625 1232.897412 642.342188 1232.897412 620.814063 Z M 1232.897412 620.814063 " transform="matrix(0.029773,0,0,0.0301205,0,0)"/>
<path style="fill-rule:nonzero;fill:rgb(22.352941%,21.176471%,19.607843%);fill-opacity:1;stroke-width:1;stroke-linecap:butt;stroke-linejoin:miter;stroke:rgb(87.843137%,75.294118%,8.627451%);stroke-opacity:1;stroke-miterlimit:4;" d="M 482.689111 639.229688 C 519.163037 623.5375 560.753809 620.425 599.326953 629.892188 C 628.716016 637.284375 656.268262 652.06875 678.703662 672.429688 C 699.039844 690.975 715.177588 714.189063 725.411279 739.867188 C 735.120166 763.989063 739.581006 790.05625 738.400195 815.99375 C 737.088184 854.510938 723.049658 892.25 699.039844 922.3375 C 676.735645 950.739063 645.772168 972.396875 611.26626 983.420313 C 567.838672 997.426563 519.163037 994.573438 477.703467 975.379688 C 432.570264 954.759375 396.752344 915.075 380.877002 868.128125 C 375.10415 851.528125 371.824121 834.020313 371.036914 816.5125 C 371.036914 809.898438 370.905713 803.284375 371.299316 796.670313 C 373.267334 763.210938 384.944238 730.270313 404.230811 702.776563 C 423.779785 674.89375 451.332031 652.457813 482.689111 639.229688 M 544.747266 728.454688 C 517.457422 731.567188 492.529199 749.982813 481.3771 775.271875 C 473.767432 791.871875 472.324219 811.195313 476.91626 828.9625 C 483.738721 855.289063 504.730908 877.335938 530.839941 885.246875 C 547.371289 890.304688 565.608252 889.915625 581.877197 884.079688 C 601.426172 877.20625 618.088721 862.551563 627.0104 843.876563 C 639.736914 818.328125 637.506494 785.90625 620.975146 762.5625 C 610.21665 746.870313 593.554102 735.198438 575.054736 730.4 C 565.214648 727.676563 554.849756 727.546875 544.747266 728.454688 Z M 544.747266 728.454688 " transform="matrix(0.029773,0,0,0.0301205,0,0)"/>
<path style="fill-rule:nonzero;fill:rgb(22.352941%,21.176471%,19.607843%);fill-opacity:1;stroke-width:1;stroke-linecap:butt;stroke-linejoin:miter;stroke:rgb(22.352941%,21.176471%,19.607843%);stroke-opacity:1;stroke-miterlimit:4;" d="M 2007.640332 630.8 C 2042.408643 621.592188 2079.800977 622.629688 2113.913281 634.042188 C 2160.620898 649.604688 2200.243652 684.75 2221.23584 729.232813 C 2233.962354 755.689063 2239.735205 785.128125 2238.947998 814.4375 C 2237.767188 859.698438 2218.743018 904.18125 2187.123535 936.473438 C 2170.198584 953.851563 2149.993604 967.9875 2127.689404 977.454688 C 2101.44917 988.7375 2072.716113 993.665625 2044.245459 991.85 C 2013.675586 990.164063 1983.499316 980.567188 1957.521484 964.096875 C 1934.561279 949.701563 1914.749902 930.11875 1900.186572 907.29375 C 1882.605615 879.8 1872.503125 847.507813 1871.584717 814.826563 C 1871.059912 797.448438 1872.634326 779.940625 1877.095166 763.08125 C 1885.229639 730.4 1902.810596 700.053125 1927.082812 676.579688 C 1949.518213 654.792188 1977.464062 638.710938 2007.640332 630.8 M 2046.475879 728.325 C 2022.597266 730.789063 2000.424268 744.535938 1987.566553 764.767188 C 1978.907275 777.995313 1974.446436 793.817188 1974.840039 809.509375 C 1974.840039 835.446875 1988.616162 860.865625 2010.264355 875.260938 C 2025.746094 885.895313 2045.163867 890.434375 2063.794434 888.359375 C 2088.197852 886.025 2110.895654 871.629688 2123.622168 850.75 C 2138.579102 827.146875 2139.628711 795.503125 2126.508594 770.8625 C 2118.767725 756.078125 2106.303613 743.8875 2091.477881 736.365625 C 2077.701758 729.232813 2061.826416 726.898438 2046.475879 728.325 Z M 2046.475879 728.325 " transform="matrix(0.029773,0,0,0.0301205,0,0)"/>
<path style="fill-rule:nonzero;fill:rgb(22.352941%,21.176471%,19.607843%);fill-opacity:1;stroke-width:1;stroke-linecap:butt;stroke-linejoin:miter;stroke:rgb(22.352941%,21.176471%,19.607843%);stroke-opacity:1;stroke-miterlimit:4;" d="M 65.075781 690.845313 C 65.731787 687.084375 69.011816 683.7125 73.079053 683.842188 C 132.11958 683.842188 191.160107 683.842188 250.200635 683.842188 C 253.874268 683.582813 257.810303 685.26875 259.384717 688.9 C 261.746338 694.0875 261.221533 700.053125 261.483936 705.629688 C 261.352734 710.946875 261.615137 716.523438 259.77832 721.710938 C 258.466309 725.2125 254.792676 727.417188 250.987842 727.2875 C 191.684912 727.2875 132.250781 727.417188 72.81665 727.2875 C 69.930225 727.157813 67.175 725.471875 65.994189 722.748438 C 63.76377 717.95 64.682178 712.503125 64.550977 707.445313 C 64.682178 701.86875 63.894971 696.292188 65.075781 690.845313 Z M 65.075781 690.845313 " transform="matrix(0.029773,0,0,0.0301205,0,0)"/>
<path style="fill-rule:nonzero;fill:rgb(22.352941%,21.176471%,19.607843%);fill-opacity:1;stroke-width:1;stroke-linecap:butt;stroke-linejoin:miter;stroke:rgb(22.352941%,21.176471%,19.607843%);stroke-opacity:1;stroke-miterlimit:4;" d="M 1680.293408 685.139063 C 1701.679199 684.879688 1723.196191 685.139063 1744.581982 685.009375 C 1744.713184 706.5375 1744.581982 728.065625 1744.581982 749.464063 C 1723.196191 749.59375 1701.679199 749.59375 1680.293408 749.59375 C 1680.424609 728.065625 1680.162207 706.5375 1680.293408 685.139063 Z M 1680.293408 685.139063 " transform="matrix(0.029773,0,0,0.0301205,0,0)"/>
<path style="fill-rule:nonzero;fill:rgb(22.352941%,21.176471%,19.607843%);fill-opacity:1;stroke-width:1;stroke-linecap:butt;stroke-linejoin:miter;stroke:rgb(22.352941%,21.176471%,19.607843%);stroke-opacity:1;stroke-miterlimit:4;" d="M 1170.183252 749.982813 C 1170.445654 728.584375 1170.052051 707.05625 1170.445654 685.657813 C 1186.320996 685.917188 1202.327539 685.7875 1218.202881 685.7875 C 1223.71333 685.917188 1229.223779 685.398438 1234.734229 686.046875 C 1234.603027 707.445313 1234.603027 728.714063 1234.734229 750.1125 C 1213.217236 750.1125 1191.700244 750.242188 1170.183252 749.982813 Z M 1170.183252 749.982813 " transform="matrix(0.029773,0,0,0.0301205,0,0)"/>
<path style="fill-rule:nonzero;fill:rgb(22.352941%,21.176471%,19.607843%);fill-opacity:1;stroke-width:1;stroke-linecap:butt;stroke-linejoin:miter;stroke:rgb(22.352941%,21.176471%,19.607843%);stroke-opacity:1;stroke-miterlimit:4;" d="M 1296.398779 686.176563 C 1308.994092 685.657813 1321.589404 686.046875 1334.184717 685.917188 C 1343.106396 686.046875 1352.028076 685.657813 1360.949756 686.046875 C 1360.687354 707.575 1360.949756 728.973438 1360.818555 750.501563 C 1339.432764 750.501563 1317.915771 750.371875 1296.52998 750.501563 C 1296.398779 728.973438 1296.661182 707.575 1296.398779 686.176563 Z M 1296.398779 686.176563 " transform="matrix(0.029773,0,0,0.0301205,0,0)"/>
<path style="fill-rule:nonzero;fill:rgb(22.352941%,21.176471%,19.607843%);fill-opacity:1;stroke-width:1;stroke-linecap:butt;stroke-linejoin:miter;stroke:rgb(22.352941%,21.176471%,19.607843%);stroke-opacity:1;stroke-miterlimit:4;" d="M 2449.263477 689.029688 C 2453.461914 688.251563 2457.791553 688.770313 2461.98999 688.640625 C 2512.502441 688.510938 2562.883691 688.640625 2613.396143 688.640625 C 2616.151367 690.845313 2619.956201 692.53125 2621.005811 696.292188 C 2621.399414 699.923438 2621.399414 703.684375 2620.481006 707.315625 C 2618.381787 710.817188 2613.920947 709.779688 2610.509717 709.909375 C 2557.898047 710.039063 2505.286377 709.909375 2452.674707 709.909375 C 2450.837891 709.909375 2448.47627 709.909375 2447.820264 707.834375 C 2446.901855 704.073438 2447.951465 700.182813 2447.557861 696.292188 C 2447.557861 693.957813 2446.770654 690.585938 2449.263477 689.029688 Z M 2449.263477 689.029688 " transform="matrix(0.029773,0,0,0.0301205,0,0)"/>
<path style="fill-rule:nonzero;fill:rgb(36.862745%,35.686275%,29.019608%);fill-opacity:1;stroke-width:1;stroke-linecap:butt;stroke-linejoin:miter;stroke:rgb(87.843137%,75.294118%,8.627451%);stroke-opacity:1;stroke-miterlimit:4;" d="M 544.747266 728.454688 C 554.849756 727.546875 565.214648 727.676563 575.054736 730.4 C 593.554102 735.198438 610.21665 746.870313 620.975146 762.5625 C 637.506494 785.90625 639.736914 818.328125 627.0104 843.876563 C 618.088721 862.551563 601.426172 877.20625 581.877197 884.079688 C 565.608252 889.915625 547.371289 890.304688 530.839941 885.246875 C 504.730908 877.335938 483.738721 855.289063 476.91626 828.9625 C 472.324219 811.195313 473.767432 791.871875 481.3771 775.271875 C 492.529199 749.982813 517.457422 731.567188 544.747266 728.454688 Z M 544.747266 728.454688 " transform="matrix(0.029773,0,0,0.0301205,0,0)"/>
<path style="fill-rule:nonzero;fill:rgb(37.647059%,36.470588%,30.196078%);fill-opacity:1;stroke-width:1;stroke-linecap:butt;stroke-linejoin:miter;stroke:rgb(87.843137%,75.294118%,8.627451%);stroke-opacity:1;stroke-miterlimit:4;" d="M 2046.475879 728.325 C 2061.826416 726.898438 2077.701758 729.232813 2091.477881 736.365625 C 2106.303613 743.8875 2118.767725 756.078125 2126.508594 770.8625 C 2139.628711 795.503125 2138.579102 827.146875 2123.622168 850.75 C 2110.895654 871.629688 2088.197852 886.025 2063.794434 888.359375 C 2045.163867 890.434375 2025.746094 885.895313 2010.264355 875.260938 C 1988.616162 860.865625 1974.840039 835.446875 1974.840039 809.509375 C 1974.446436 793.817188 1978.907275 777.995313 1987.566553 764.767188 C 2000.424268 744.535938 2022.597266 730.789063 2046.475879 728.325 Z M 2046.475879 728.325 " transform="matrix(0.029773,0,0,0.0301205,0,0)"/>
</g>
</svg>
