<?xml version="1.0" encoding="utf-8"?>
<!-- Svg Vector Icons : http://www.onlinewebfonts.com/icon -->
<!DOCTYPE svg PUBLIC "-//W3C//DTD SVG 1.1//EN" "http://www.w3.org/Graphics/SVG/1.1/DTD/svg11.dtd">
<svg version="1.1" xmlns="http://www.w3.org/2000/svg" xmlns:xlink="http://www.w3.org/1999/xlink" x="0px" y="0px" viewBox="0 0 256 256" enable-background="new 0 0 256 256" xml:space="preserve">
<metadata> Svg Vector Icons : http://www.onlinewebfonts.com/icon </metadata>
<g><g><g><g><g><path fill="#000000" d="M245,136.9c-2.6-9.2-23.7-17.2-27.8-18.8c-4.5-1.6-16-5.6-27-7c-19.4-9.5-41.1-16.1-41.5-16.2c-0.3-0.1-9-1.9-33-1.9c-16,0-31.6,3.2-45.3,5.9c-7.2,1.4-14,2.8-20,3.6c-17.3,2.1-30.4,2.3-30.5,2.3c-1,0-2,0.7-2.3,1.6c-0.3,0.8-7.5,18.8-7.5,27c0,8.9,12.4,17.9,13.8,18.9c0.4,0.3,0.9,0.5,1.5,0.5h5.2c3.9,6.1,10.6,10.3,18.4,10.3c7.8,0,14.5-4.1,18.4-10.3h106.6c3.7,6.1,10.4,10.3,18,10.3c7.7,0,14.3-4.1,18-10.3h32.8c1.1,0,2.1-0.7,2.5-1.8C245.2,150.7,247.1,144.5,245,136.9z M181.8,112.9c-4.5,0.9-9.4,1.5-14.8,1.8l0.1-0.2c0.4-0.7,0.4-1.4,0.1-2.2s-0.8-1.3-1.5-1.5l-7.7-2.7c-0.7-0.2-1.5-0.2-2.1,0.2c-0.6,0.4-1.1,1-1.3,1.7l-1,4.9c-13.1-0.4-27.6-2.2-43.7-4.4l7-12.3c21.9,0.1,30.1,1.7,30.2,1.7C147.5,99.9,164.6,105.2,181.8,112.9z M71.3,104c12.2-2.5,25.8-5.1,39.7-5.6l-6.5,11.3c-2.9-0.4-5.8-0.8-8.8-1.3c-9-1.3-18.1-2.6-27.6-3.8C69.2,104.4,70.3,104.2,71.3,104z M48.8,157.9c-9.2,0-16.6-7.5-16.6-16.6c0-9.2,7.5-16.6,16.6-16.6s16.6,7.4,16.6,16.6C65.5,150.4,58,157.9,48.8,157.9z M191.9,157.9c-8.8,0-16-7.2-16-16c0-8.8,7.2-16,16-16s16,7.2,16,16S200.7,157.9,191.9,157.9z"/><path fill="#000000" d="M48.8,130.7c5.9,0,10.6,4.7,10.6,10.6c0,5.9-4.7,10.6-10.6,10.6s-10.6-4.7-10.6-10.6C38.3,135.4,43,130.7,48.8,130.7z"/><path fill="#000000" d="M191.9,131.3c5.9,0,10.6,4.7,10.6,10.6c0,5.9-4.7,10.6-10.6,10.6c-5.9,0-10.6-4.7-10.6-10.6C181.3,136.1,186,131.3,191.9,131.3z"/></g></g></g><g></g><g></g><g></g><g></g><g></g><g></g><g></g><g></g><g></g><g></g><g></g><g></g><g></g><g></g><g></g></g></g>
</svg>