<?xml version="1.0"?>
<svg width="512.001" height="512.001" xmlns="http://www.w3.org/2000/svg" xmlns:svg="http://www.w3.org/2000/svg" transform="rotate(0)matrix(1, 0, 0, 1, 0, 0)" version="1.1" xml:space="preserve">
 <g class="layer">
  <title>Layer 1</title>
  <g id="SVGRepo_bgCarrier" stroke-width="0"/>
  <g id="SVGRepo_tracerCarrier" stroke-linecap="round" stroke-linejoin="round"/>
  <g id="SVGRepo_iconCarrier">
   <path d="m327.09,401.78c-6.84,-7.89 -70.37,-41.55 -92.54,-47.82c-2.03,-0.58 -4.05,0.97 -4.05,3.08l0,12.6c0,1.31 0.8,2.49 2.02,2.98c9.09,3.61 46.21,18.8 55.02,29.16l39.55,0l0,0z" fill="#A3DDDC" id="svg_1"/>
   <path d="m242.99,356.86c2.02,12.7 13.02,22.41 26.3,22.41c5.03,0 9.74,-1.4 13.76,-3.83c-14.3,-7.36 -29.21,-14.4 -40.06,-18.58z" enable-background="new" fill="#FFFFFF" id="svg_2" opacity="0.2"/>
   <path d="m159.76,403.61l8.64,-29.23c1.51,-5.11 6.39,-8.47 11.7,-8.05l0,0c5.87,0.46 10.4,5.36 10.4,11.25l0,24.38l-30.74,1.65z" fill="#272F37" id="svg_3"/>
   <path d="m15.95,465.04l0,0c13.61,9.48 29.81,14.57 46.4,14.57l380.74,0c8.29,0 16.57,-0.67 24.75,-2l27.39,-4.44c4.52,-0.73 7.83,-4.63 7.83,-9.2l0,-17.95c0,-5.45 -2.89,-10.48 -7.59,-13.22l-15.43,-9c-28.24,-16.45 -60.34,-25.12 -93.02,-25.12l-101,0l-93.3,0c-4.99,0 -9.95,-0.73 -14.73,-2.16l-27.86,-8.32c-16.05,-4.8 -33.18,-4.56 -49.08,0.69l0,0c-5.51,1.81 -11.28,2.74 -17.08,2.74l-38.72,0c-26.36,0 -37.94,21.98 -37.94,40.07l-0.37,15.59c-0.16,7.05 3.22,13.72 9.01,17.75z" fill="#DE2A4E" id="svg_4"/>
   <path d="m280.74,407.42l-27.63,1.73c-3.18,0.2 -5.93,-2.19 -6.17,-5.36l-0.72,-9.6c-0.3,-3.99 3.43,-7.08 7.29,-6.06l27.87,7.4c1.85,0.5 3.18,2.1 3.33,4.01l0.23,3.06c0.18,2.5 -1.7,4.66 -4.2,4.82z" fill="#FF496A" id="svg_5"/>
   <path d="m94.87,413.61c-27.1,0 -49.06,21.97 -49.06,49.06c0,5.5 0.92,10.78 2.59,15.71c4.58,0.81 9.25,1.23 13.95,1.23l78.58,0c1.94,-5.28 3,-10.98 3,-16.94c0,-27.09 -21.97,-49.06 -49.06,-49.06z" enable-background="new" id="svg_6" opacity="0.1"/>
   <circle cx="94.87" cy="462.67" fill="#272F37" id="svg_7" r="41.5"/>
   <circle cx="94.87" cy="462.67" fill="#C7C9C9" id="svg_8" r="18.64"/>
   <path d="m365.21,422.88l-13.15,12.16c-2.26,2.09 -5.34,3.06 -8.39,2.65l-113.59,-15.52c-0.9,-0.12 -0.82,-1.44 0.09,-1.46l133.1,-2.66c2.55,-0.05 3.82,3.09 1.94,4.83z" enable-background="new" id="svg_9" opacity="0.1"/>
   <path d="m481.23,458.42l-13.39,19.19l27.4,-4.44c2.77,-0.45 5.09,-2.1 6.47,-4.37l-12.36,-11.29c-2.42,-2.21 -6.24,-1.79 -8.12,0.91z" enable-background="new" id="svg_10" opacity="0.2"/>
   <path d="m480.04,423.8c-12.52,-7.29 -25.8,-13.05 -39.55,-17.21l18.82,25.86c2.66,3.65 7.44,5.07 11.67,3.46l18.04,-6.87l-8.98,-5.24z" fill="#A3DDDC" id="svg_11"/>
   <g id="svg_12">
    <path d="m407.26,399.81c11.47,12.3 27.8,19.99 45.94,19.99c5.43,0 10.69,-0.68 15.71,-1.97c-19.36,-9.58 -40.23,-15.66 -61.65,-18.02z" enable-background="new" fill="#FFFFFF" id="svg_13" opacity="0.2"/>
    <path d="m495.47,432.8l-12.15,-7.08c-0.28,1.29 -0.43,2.62 -0.43,3.99c0,10.4 8.42,18.83 18.82,18.83c0.46,0 0.91,-0.04 1.35,-0.07l0,-2.45c0,-5.45 -2.89,-10.48 -7.59,-13.22z" enable-background="new" fill="#FFFFFF" id="svg_14" opacity="0.2"/>
    <path d="m150.13,388.2c-11.69,-3.49 -23.95,-4.3 -35.89,-2.46c6.34,9.66 17.27,16.05 29.69,16.05c8.82,0 16.87,-3.23 23.08,-8.55l-16.88,-5.04z" enable-background="new" fill="#FFFFFF" id="svg_15" opacity="0.2"/>
   </g>
   <path d="m405.21,413.61c-27.1,0 -49.06,21.97 -49.06,49.06c0,5.96 1.06,11.66 3,16.94l83.94,0c2.76,0 5.51,-0.08 8.25,-0.23c1.89,-5.22 2.93,-10.84 2.93,-16.71c0,-27.09 -21.97,-49.06 -49.06,-49.06z" enable-background="new" id="svg_16" opacity="0.1"/>
   <circle cx="405.21" cy="462.67" fill="#272F37" id="svg_17" r="41.5"/>
   <circle cx="405.21" cy="462.67" fill="#C7C9C9" id="svg_18" r="18.64"/>
   <path d="m298.34,468.26l-121.58,0c-4.39,0 -7.94,-3.56 -7.94,-7.94c0,-4.38 3.55,-7.93 7.94,-7.93l121.58,0c4.39,0 7.94,3.55 7.94,7.93c0,4.38 -3.55,7.94 -7.94,7.94z" enable-background="new" id="svg_19" opacity="0.1"/>
   <path d="m499.46,425.94l-15.43,-8.99c-29.42,-17.15 -62.96,-26.21 -97.01,-26.21l-61.12,0c-17.99,-12.24 -68.39,-38.53 -89.19,-44.42c-3.37,-0.96 -6.92,-0.29 -9.72,1.83c-2.77,2.09 -4.43,5.42 -4.43,8.89l0,12.6c0,4.59 2.76,8.65 7.02,10.35c2.39,0.95 6.72,2.7 11.93,4.94c-1.41,1.69 -2.39,3.68 -2.88,5.81l-40.19,0l0,-13.16c0,-9.97 -7.78,-18.38 -17.72,-19.16c-9,-0.71 -17.38,5.06 -19.93,13.71l-2.98,10.08l-5.41,-1.62c-17.69,-5.28 -36.31,-5.02 -53.84,0.76c-4.71,1.56 -9.62,2.35 -14.59,2.35l-38.71,0c-18.27,0 -29.15,8.83 -35.07,16.23c-6.86,8.59 -10.8,20.13 -10.82,31.67l-0.36,15.51c-0.23,9.74 4.41,18.88 12.4,24.44c12.01,8.36 25.88,13.61 40.39,15.34c8.48,15.04 24.61,25.22 43.07,25.22c18.19,0 34.12,-9.89 42.7,-24.57l224.94,0c8.58,14.68 24.5,24.57 42.7,24.57c18.23,0 34.17,-9.92 42.74,-24.65c7.08,-0.21 14.18,-0.88 21.16,-2.01l27.4,-4.44c8.4,-1.37 14.49,-8.53 14.49,-17.04l0,-17.95c0,-8.24 -4.42,-15.93 -11.54,-20.08zm-261.02,-59.5l0,-2.82c14.17,5.27 37.81,16.84 56.51,27.12l-6.31,0c-1.45,-1.34 -3.23,-2.34 -5.22,-2.87l-1.26,-0.34c-13.4,-8.39 -34.19,-17.21 -43.72,-21.09zm29.79,33.81l-13.53,0.85l-0.34,-4.53l13.87,3.68zm-92.22,-23.62c0.45,-1.51 1.9,-2.51 3.47,-2.39c1.73,0.14 3.09,1.6 3.09,3.34l0,11.94c-0.77,-0.19 -1.55,-0.37 -2.31,-0.6l-7.24,-2.16l2.99,-10.13zm-81.14,119.61c-18.51,0 -33.57,-15.06 -33.57,-33.57c0,-18.5 15.06,-33.56 33.57,-33.56c18.51,0 33.56,15.06 33.56,33.56c0,18.51 -15.05,33.57 -33.56,33.57zm310.34,0c-18.51,0 -33.57,-15.06 -33.57,-33.57c0,-18.5 15.06,-33.56 33.57,-33.56c18.5,0 33.56,15.06 33.56,33.56c0,18.51 -15.06,33.57 -33.56,33.57zm89.92,-32.27c0,0.68 -0.49,1.26 -1.17,1.37l-27.39,4.44c-4.2,0.68 -8.44,1.16 -12.69,1.47c0.49,-2.78 0.76,-5.65 0.76,-8.58c0,-27.26 -22.18,-49.43 -49.44,-49.43s-49.43,22.17 -49.43,49.43c0,3.08 0.29,6.08 0.83,9l-213.13,0c0.54,-2.92 0.84,-5.92 0.84,-9c0,-27.26 -22.18,-49.43 -49.44,-49.43s-49.44,22.17 -49.44,49.43c0,2.42 0.19,4.8 0.52,7.12c-9.1,-2.09 -17.76,-5.89 -25.47,-11.26c-3.61,-2.52 -5.7,-6.65 -5.6,-11.05l0.36,-15.6c0,-0.06 0,-0.12 0,-0.18c0,-11.11 6.28,-32.13 30.02,-32.13l38.71,0c6.66,0 13.24,-1.06 19.56,-3.15c14.44,-4.76 29.76,-4.97 44.33,-0.62l27.86,8.33c5.52,1.65 11.24,2.48 17,2.48l46.68,0c1.49,6.06 6.99,10.49 13.34,10.49c0.29,0 0.58,-0.01 0.86,-0.02l27.64,-1.74c3.34,-0.21 6.39,-1.71 8.59,-4.24c1.16,-1.33 1.99,-2.85 2.5,-4.49l94.69,0c31.24,0 62.03,8.32 89.02,24.05l15.43,8.99c2.26,1.32 3.66,3.76 3.66,6.37l0,17.95l0,0zm-315.71,-55.06l-21.19,0c-4.38,0 -7.94,3.55 -7.94,7.93c0,4.38 3.56,7.94 7.94,7.94l21.19,0c4.38,0 7.94,-3.56 7.94,-7.94c0,-4.38 -3.56,-7.93 -7.94,-7.93zm-84.55,27.19c-14.65,0 -26.58,11.92 -26.58,26.57s11.93,26.58 26.58,26.58s26.57,-11.92 26.57,-26.58c0,-14.65 -11.92,-26.57 -26.57,-26.57zm0,37.28c-5.9,0 -10.7,-4.81 -10.7,-10.71c0,-5.9 4.8,-10.7 10.7,-10.7c5.9,0 10.7,4.8 10.7,10.7c0,5.9 -4.8,10.71 -10.7,10.71zm310.34,-37.28c-14.66,0 -26.58,11.92 -26.58,26.57s11.92,26.58 26.58,26.58c14.65,0 26.57,-11.92 26.57,-26.58c0,-14.65 -11.92,-26.57 -26.57,-26.57zm0,37.28c-5.9,0 -10.71,-4.81 -10.71,-10.71c0,-5.9 4.81,-10.7 10.71,-10.7c5.9,0 10.7,4.8 10.7,10.7c0,5.9 -4.8,10.71 -10.7,10.71z" id="svg_20"/>
  </g>
 </g>
</svg>